solid Six_lobe_antenna_holder
facet normal -0.8660253897833201 0.5000000242506478 -8.568800683302092e-09
  outer loop
    vertex -18.024997711181637 0.8227233886718749 10.300000190734862
    vertex -18.5 0.0 0.0
    vertex -18.5 0.0 10.300000190734862
  endloop
endfacet
facet normal -0.8660253897833201 0.5000000242506478 -8.568800683302092e-09
  outer loop
    vertex -18.5 0.0 0.0
    vertex -18.024997711181637 0.8227233886718749 10.300000190734862
    vertex -14.255099265352754 7.352381696228773 2.7602009991657797
  endloop
endfacet
facet normal -0.8660253897833201 0.5000000242506478 -8.568800683302092e-09
  outer loop
    vertex -18.5 0.0 0.0
    vertex -14.255099265352754 7.352381696228773 2.7602009991657797
    vertex -9.24999713897705 16.02147102355957 0.0
  endloop
endfacet
facet normal -0.8660253897833201 0.5000000242506478 -8.568800683302092e-09
  outer loop
    vertex -9.24999713897705 16.02147102355957 0.0
    vertex -14.255099265352754 7.352381696228773 2.7602009991657797
    vertex -13.497504677137155 8.664573284591627 2.754988705081973
  endloop
endfacet
facet normal -0.8660253897833201 0.5000000242506478 -8.568800683302092e-09
  outer loop
    vertex -9.24999713897705 16.02147102355957 0.0
    vertex -13.497504677137155 8.664573284591627 2.754988705081973
    vertex -9.72499942779541 15.198747634887694 10.300000190734862
  endloop
endfacet
facet normal -0.8660253897833201 0.5000000242506478 -8.568800683302092e-09
  outer loop
    vertex -9.24999713897705 16.02147102355957 0.0
    vertex -9.72499942779541 15.198747634887694 10.300000190734862
    vertex -9.24999713897705 16.02147102355957 10.300000190734862
  endloop
endfacet
facet normal -0.8660252638706389 0.5000002423376559 -2.7484788625681553e-07
  outer loop
    vertex 4.618803977966309 0.0 3.9999999999999996
    vertex 3.839098928305938 -1.3504835465502605 2.7499999999999996
    vertex 3.839098928305938 -1.3504835465502605 3.9999999999999996
  endloop
endfacet
facet normal -0.8660252638706389 0.5000002423376559 -2.7484788625681553e-07
  outer loop
    vertex 3.0890989448484687 -2.6495202466061234 3.9999999999999996
    vertex 2.309401512145996 -3.9999999999999996 0.0
    vertex 2.309401512145996 -3.9999999999999996 3.9999999999999996
  endloop
endfacet
facet normal -0.8660252638706389 0.5000002423376559 -2.7484788625681553e-07
  outer loop
    vertex 2.309401512145996 -3.9999999999999996 0.0
    vertex 3.0890989448484687 -2.6495202466061234 3.9999999999999996
    vertex 3.0890989448484687 -2.6495202466061234 2.7499999999999996
  endloop
endfacet
facet normal -0.8660252638706389 0.5000002423376559 -2.7484788625681553e-07
  outer loop
    vertex 2.309401512145996 -3.9999999999999996 0.0
    vertex 3.0890989448484687 -2.6495202466061234 2.7499999999999996
    vertex 4.618803977966309 0.0 0.0
  endloop
endfacet
facet normal -0.8660252638706389 0.5000002423376559 -2.7484788625681553e-07
  outer loop
    vertex 4.618803977966309 0.0 0.0
    vertex 3.0890989448484687 -2.6495202466061234 2.7499999999999996
    vertex 3.839098928305938 -1.3504835465502605 2.7499999999999996
  endloop
endfacet
facet normal -0.8660252638706389 0.5000002423376559 -2.7484788625681553e-07
  outer loop
    vertex 4.618803977966309 0.0 0.0
    vertex 3.839098928305938 -1.3504835465502605 2.7499999999999996
    vertex 4.618803977966309 0.0 3.9999999999999996
  endloop
endfacet
facet normal -0.0 -0.0 1.0
  outer loop
    vertex -8.300000190734863 14.376020431518553 10.300000190734862
    vertex -9.24999713897705 16.02147102355957 10.300000190734862
    vertex -9.72499942779541 15.198747634887694 10.300000190734862
  endloop
endfacet
facet normal -0.0 -0.0 1.0
  outer loop
    vertex -9.24999713897705 16.02147102355957 10.300000190734862
    vertex -8.300000190734863 14.376020431518553 10.300000190734862
    vertex -8.300000190734863 16.02147102355957 10.300000190734862
  endloop
endfacet
facet normal -0.0 -0.0 1.0
  outer loop
    vertex -18.024997711181637 -0.8227272033691406 10.300000190734862
    vertex -18.024997711181637 0.8227233886718749 10.300000190734862
    vertex -18.5 0.0 10.300000190734862
  endloop
endfacet
facet normal -0.0 -0.0 1.0
  outer loop
    vertex -18.024997711181637 0.8227233886718749 10.300000190734862
    vertex -18.024997711181637 -0.8227272033691406 10.300000190734862
    vertex -16.600002288818356 0.0 10.300000190734862
  endloop
endfacet
facet normal -0.0 -0.0 1.0
  outer loop
    vertex 9.725001335144043 15.198747634887694 10.300000190734862
    vertex 8.300002098083496 16.02147102355957 10.300000190734862
    vertex 8.300002098083496 14.376020431518553 10.300000190734862
  endloop
endfacet
facet normal -0.0 -0.0 1.0
  outer loop
    vertex 8.300002098083496 16.02147102355957 10.300000190734862
    vertex 9.725001335144043 15.198747634887694 10.300000190734862
    vertex 9.25000286102295 16.02147102355957 10.300000190734862
  endloop
endfacet
facet normal 0.8660253838375426 -0.5000000345490235 -1.1154086347793874e-07
  outer loop
    vertex -2.3093996047973633 4.000001907348633 0.0
    vertex -4.618802070617676 0.0 3.9999999999999996
    vertex -4.618802070617676 0.0 0.0
  endloop
endfacet
facet normal 0.8660253838375426 -0.5000000345490235 -1.1154086347793874e-07
  outer loop
    vertex -4.618802070617676 0.0 3.9999999999999996
    vertex -2.3093996047973633 4.000001907348633 0.0
    vertex -3.839100873299603 1.3504797535873685 2.7499999999999996
  endloop
endfacet
facet normal 0.8660253838375426 -0.5000000345490235 -1.1154086347793874e-07
  outer loop
    vertex -3.839100873299603 1.3504797535873685 2.7499999999999996
    vertex -2.3093996047973633 4.000001907348633 0.0
    vertex -3.089100852197102 2.6495183392574897 2.7499999999999996
  endloop
endfacet
facet normal 0.8660253838375426 -0.5000000345490235 -1.1154086347793874e-07
  outer loop
    vertex -3.089100852197102 2.6495183392574897 2.7499999999999996
    vertex -2.3093996047973633 4.000001907348633 0.0
    vertex -3.089100852197102 2.6495183392574897 3.9999999999999996
  endloop
endfacet
facet normal 0.8660253838375426 -0.5000000345490235 -1.1154086347793874e-07
  outer loop
    vertex -3.089100852197102 2.6495183392574897 3.9999999999999996
    vertex -2.3093996047973633 4.000001907348633 0.0
    vertex -2.3093996047973633 4.000001907348633 3.9999999999999996
  endloop
endfacet
facet normal 0.8660253838375426 -0.5000000345490235 -1.1154086347793874e-07
  outer loop
    vertex -3.839100873299603 1.3504797535873685 3.9999999999999996
    vertex -4.618802070617676 0.0 3.9999999999999996
    vertex -3.839100873299603 1.3504797535873685 2.7499999999999996
  endloop
endfacet
facet normal 0.353553378648466 0.6123724374296132 0.7071067856574204
  outer loop
    vertex -16.600002288818356 0.0 10.300000190734862
    vertex -14.255099265352754 7.352381696228773 2.7602009991657797
    vertex -18.024997711181637 0.8227233886718749 10.300000190734862
  endloop
endfacet
facet normal 0.353553378648466 0.6123724374296132 0.7071067856574204
  outer loop
    vertex -14.255099265352754 7.352381696228773 2.7602009991657797
    vertex -16.600002288818356 0.0 10.300000190734862
    vertex -12.6913423538208 5.017946243286132 3.9999999999999996
  endloop
endfacet
facet normal 0.353553378648466 0.6123724374296132 0.7071067856574204
  outer loop
    vertex -12.6913423538208 5.017946243286132 3.9999999999999996
    vertex -16.600002288818356 0.0 10.300000190734862
    vertex -8.082901954650879 0.0 6.041451930999756
  endloop
endfacet
facet normal 0.353553378648466 0.6123724374296132 0.7071067856574204
  outer loop
    vertex -12.6913423538208 5.017946243286132 3.9999999999999996
    vertex -8.082901954650879 0.0 6.041451930999756
    vertex -7.062176704406738 1.7679481506347656 3.9999999999999996
  endloop
endfacet
facet normal 0.353553378648466 0.6123724374296132 0.7071067856574204
  outer loop
    vertex -12.07144257284787 6.091647138123304 2.7602009991657797
    vertex -14.255099265352754 7.352381696228773 2.7602009991657797
    vertex -12.6913423538208 5.017946243286132 3.9999999999999996
  endloop
endfacet
facet normal -0.0 1.0 -0.0
  outer loop
    vertex -2.3093996047973633 -3.9999999999999996 3.9999999999999996
    vertex 2.309401512145996 -3.9999999999999996 0.0
    vertex -2.3093996047973633 -3.9999999999999996 0.0
  endloop
endfacet
facet normal -0.0 1.0 -0.0
  outer loop
    vertex 2.309401512145996 -3.9999999999999996 0.0
    vertex -2.3093996047973633 -3.9999999999999996 3.9999999999999996
    vertex -0.7499971389770506 -3.9999999999999996 2.7499999999999996
  endloop
endfacet
facet normal -0.0 1.0 -0.0
  outer loop
    vertex -0.7499971389770506 -3.9999999999999996 2.7499999999999996
    vertex -2.3093996047973633 -3.9999999999999996 3.9999999999999996
    vertex -0.7499971389770506 -3.9999999999999996 3.9999999999999996
  endloop
endfacet
facet normal -0.0 1.0 -0.0
  outer loop
    vertex 2.309401512145996 -3.9999999999999996 0.0
    vertex 0.750002861022949 -3.9999999999999996 2.7499999999999996
    vertex 2.309401512145996 -3.9999999999999996 3.9999999999999996
  endloop
endfacet
facet normal -0.0 1.0 -0.0
  outer loop
    vertex 0.750002861022949 -3.9999999999999996 2.7499999999999996
    vertex 2.309401512145996 -3.9999999999999996 0.0
    vertex -0.7499971389770506 -3.9999999999999996 2.7499999999999996
  endloop
endfacet
facet normal -0.0 1.0 -0.0
  outer loop
    vertex 2.309401512145996 -3.9999999999999996 3.9999999999999996
    vertex 0.750002861022949 -3.9999999999999996 2.7499999999999996
    vertex 0.750002861022949 -3.9999999999999996 3.9999999999999996
  endloop
endfacet
facet normal 0.3535534631853734 -0.6123723504777762 0.7071068186914568
  outer loop
    vertex -12.068764745022662 -6.09628787693016 2.7548447212179004
    vertex -12.6913423538208 -5.017950057983398 3.9999999999999996
    vertex -14.252421437527547 -7.357022435035629 2.7548447212179004
  endloop
endfacet
facet normal 0.3535534631853734 -0.6123723504777762 0.7071068186914568
  outer loop
    vertex -14.252421437527547 -7.357022435035629 2.7548447212179004
    vertex -16.600002288818356 0.0 10.300000190734862
    vertex -18.024997711181637 -0.8227272033691406 10.300000190734862
  endloop
endfacet
facet normal 0.3535534631853734 -0.6123723504777762 0.7071068186914568
  outer loop
    vertex -16.600002288818356 0.0 10.300000190734862
    vertex -14.252421437527547 -7.357022435035629 2.7548447212179004
    vertex -12.6913423538208 -5.017950057983398 3.9999999999999996
  endloop
endfacet
facet normal 0.3535534631853734 -0.6123723504777762 0.7071068186914568
  outer loop
    vertex -16.600002288818356 0.0 10.300000190734862
    vertex -12.6913423538208 -5.017950057983398 3.9999999999999996
    vertex -8.082901954650879 0.0 6.041451930999756
  endloop
endfacet
facet normal 0.3535534631853734 -0.6123723504777762 0.7071068186914568
  outer loop
    vertex -8.082901954650879 0.0 6.041451930999756
    vertex -12.6913423538208 -5.017950057983398 3.9999999999999996
    vertex -7.062176704406738 -1.7679500579833984 3.9999999999999996
  endloop
endfacet
facet normal -0.3535533046248377 -0.6123724418384243 0.7071068188510858
  outer loop
    vertex -11.313847984632268 7.403838726486159 2.754988705081973
    vertex -9.72499942779541 15.198747634887694 10.300000190734862
    vertex -13.497504677137155 8.664573284591627 2.754988705081973
  endloop
endfacet
facet normal -0.3535533046248377 -0.6123724418384243 0.7071068188510858
  outer loop
    vertex -9.72499942779541 15.198747634887694 10.300000190734862
    vertex -11.313847984632268 7.403838726486159 2.754988705081973
    vertex -10.691342353820799 8.482049942016602 3.9999999999999996
  endloop
endfacet
facet normal -0.3535533046248377 -0.6123724418384243 0.7071068188510858
  outer loop
    vertex -9.72499942779541 15.198747634887694 10.300000190734862
    vertex -10.691342353820799 8.482049942016602 3.9999999999999996
    vertex -5.062176704406737 5.232049942016602 3.9999999999999996
  endloop
endfacet
facet normal -0.3535533046248377 -0.6123724418384243 0.7071068188510858
  outer loop
    vertex -9.72499942779541 15.198747634887694 10.300000190734862
    vertex -5.062176704406737 5.232049942016602 3.9999999999999996
    vertex -8.300000190734863 14.376020431518553 10.300000190734862
  endloop
endfacet
facet normal -0.3535533046248377 -0.6123724418384243 0.7071068188510858
  outer loop
    vertex -8.300000190734863 14.376020431518553 10.300000190734862
    vertex -5.062176704406737 5.232049942016602 3.9999999999999996
    vertex -4.041451454162598 7.000001907348633 6.041451930999756
  endloop
endfacet
facet normal 0.0 0.0 -1.0
  outer loop
    vertex -9.24999713897705 16.02147102355957 0.0
    vertex -9.24999713897705 -16.02147102355957 0.0
    vertex -18.5 0.0 0.0
  endloop
endfacet
facet normal 0.0 0.0 -1.0
  outer loop
    vertex -9.24999713897705 -16.02147102355957 0.0
    vertex -9.24999713897705 16.02147102355957 0.0
    vertex -4.618802070617676 0.0 0.0
  endloop
endfacet
facet normal 0.0 0.0 -1.0
  outer loop
    vertex -4.618802070617676 0.0 0.0
    vertex -9.24999713897705 16.02147102355957 0.0
    vertex -2.3093996047973633 4.000001907348633 0.0
  endloop
endfacet
facet normal 0.0 0.0 -1.0
  outer loop
    vertex -2.3093996047973633 4.000001907348633 0.0
    vertex -9.24999713897705 16.02147102355957 0.0
    vertex 9.25000286102295 16.02147102355957 0.0
  endloop
endfacet
facet normal 0.0 0.0 -1.0
  outer loop
    vertex -2.3093996047973633 4.000001907348633 0.0
    vertex 9.25000286102295 16.02147102355957 0.0
    vertex 2.309401512145996 4.000001907348633 0.0
  endloop
endfacet
facet normal 0.0 0.0 -1.0
  outer loop
    vertex 2.309401512145996 4.000001907348633 0.0
    vertex 9.25000286102295 16.02147102355957 0.0
    vertex 4.618803977966309 0.0 0.0
  endloop
endfacet
facet normal 0.0 0.0 -1.0
  outer loop
    vertex -9.24999713897705 -16.02147102355957 0.0
    vertex -2.3093996047973633 -3.9999999999999996 0.0
    vertex 9.25000286102295 -16.02147102355957 0.0
  endloop
endfacet
facet normal 0.0 0.0 -1.0
  outer loop
    vertex -2.3093996047973633 -3.9999999999999996 0.0
    vertex -9.24999713897705 -16.02147102355957 0.0
    vertex -4.618802070617676 0.0 0.0
  endloop
endfacet
facet normal 0.0 0.0 -1.0
  outer loop
    vertex 9.25000286102295 -16.02147102355957 0.0
    vertex -2.3093996047973633 -3.9999999999999996 0.0
    vertex 2.309401512145996 -3.9999999999999996 0.0
  endloop
endfacet
facet normal 0.0 0.0 -1.0
  outer loop
    vertex 9.25000286102295 -16.02147102355957 0.0
    vertex 2.309401512145996 -3.9999999999999996 0.0
    vertex 4.618803977966309 0.0 0.0
  endloop
endfacet
facet normal 0.0 0.0 -1.0
  outer loop
    vertex 9.25000286102295 -16.02147102355957 0.0
    vertex 4.618803977966309 0.0 0.0
    vertex 9.25000286102295 16.02147102355957 0.0
  endloop
endfacet
facet normal 0.0 0.0 -1.0
  outer loop
    vertex 9.25000286102295 -16.02147102355957 0.0
    vertex 9.25000286102295 16.02147102355957 0.0
    vertex 18.5 0.0 0.0
  endloop
endfacet
facet normal 0.0 -1.0 0.0
  outer loop
    vertex 9.25000286102295 -16.02147102355957 0.0
    vertex 0.7517250600717004 -16.02147102355957 2.7517222569828323
    vertex -9.24999713897705 -16.02147102355957 0.0
  endloop
endfacet
facet normal 0.0 -1.0 0.0
  outer loop
    vertex 0.7517250600717004 -16.02147102355957 2.7517222569828323
    vertex 9.25000286102295 -16.02147102355957 0.0
    vertex 9.25000286102295 -16.02147102355957 10.300000190734862
  endloop
endfacet
facet normal 0.0 -1.0 0.0
  outer loop
    vertex -9.24999713897705 -16.02147102355957 0.0
    vertex 0.7517250600717004 -16.02147102355957 2.7517222569828323
    vertex -0.7481224992371901 -16.02147102355957 2.748125259215564
  endloop
endfacet
facet normal 0.0 -1.0 0.0
  outer loop
    vertex 0.7517250600717004 -16.02147102355957 2.7517222569828323
    vertex 9.25000286102295 -16.02147102355957 10.300000190734862
    vertex 8.300002098083496 -16.02147102355957 10.300000190734862
  endloop
endfacet
facet normal 0.0 -1.0 0.0
  outer loop
    vertex -0.7481224992371901 -16.02147102355957 2.748125259215564
    vertex -9.24999713897705 -16.02147102355957 10.300000190734862
    vertex -9.24999713897705 -16.02147102355957 0.0
  endloop
endfacet
facet normal 0.0 -1.0 0.0
  outer loop
    vertex -9.24999713897705 -16.02147102355957 10.300000190734862
    vertex -0.7481224992371901 -16.02147102355957 2.748125259215564
    vertex -8.300000190734863 -16.02147102355957 10.300000190734862
  endloop
endfacet
facet normal -0.0 -0.0 1.0
  outer loop
    vertex 9.25000286102295 -16.02147102355957 10.300000190734862
    vertex 8.300002098083496 -14.376024246215819 10.300000190734862
    vertex 8.300002098083496 -16.02147102355957 10.300000190734862
  endloop
endfacet
facet normal -0.0 -0.0 1.0
  outer loop
    vertex 8.300002098083496 -14.376024246215819 10.300000190734862
    vertex 9.25000286102295 -16.02147102355957 10.300000190734862
    vertex 9.725001335144043 -15.198747634887694 10.300000190734862
  endloop
endfacet
facet normal 0.8660252638709444 0.50000024233719 1.1154090975057242e-07
  outer loop
    vertex -4.618802070617676 0.0 0.0
    vertex -2.3093996047973633 -3.9999999999999996 3.9999999999999996
    vertex -2.3093996047973633 -3.9999999999999996 0.0
  endloop
endfacet
facet normal 0.8660252638709444 0.50000024233719 1.1154090975057242e-07
  outer loop
    vertex -2.3093996047973633 -3.9999999999999996 3.9999999999999996
    vertex -4.618802070617676 0.0 0.0
    vertex -3.089100852197102 -2.6495202466061225 2.7499999999999996
  endloop
endfacet
facet normal 0.8660252638709444 0.50000024233719 1.1154090975057242e-07
  outer loop
    vertex -3.089100852197102 -2.6495202466061225 2.7499999999999996
    vertex -4.618802070617676 0.0 0.0
    vertex -3.8391008356545706 -1.3504835465502605 2.7499999999999996
  endloop
endfacet
facet normal 0.8660252638709444 0.50000024233719 1.1154090975057242e-07
  outer loop
    vertex -3.8391008356545706 -1.3504835465502605 2.7499999999999996
    vertex -4.618802070617676 0.0 0.0
    vertex -3.8391008356545706 -1.3504835465502605 3.9999999999999996
  endloop
endfacet
facet normal 0.8660252638709444 0.50000024233719 1.1154090975057242e-07
  outer loop
    vertex -3.8391008356545706 -1.3504835465502605 3.9999999999999996
    vertex -4.618802070617676 0.0 0.0
    vertex -4.618802070617676 0.0 3.9999999999999996
  endloop
endfacet
facet normal 0.8660252638709444 0.50000024233719 1.1154090975057242e-07
  outer loop
    vertex -3.089100852197102 -2.6495202466061225 3.9999999999999996
    vertex -2.3093996047973633 -3.9999999999999996 3.9999999999999996
    vertex -3.089100852197102 -2.6495202466061225 2.7499999999999996
  endloop
endfacet
facet normal -0.0 -0.0 1.0
  outer loop
    vertex 18.025001525878903 -0.8227272033691406 10.300000190734862
    vertex 18.025001525878903 0.8227233886718749 10.300000190734862
    vertex 16.600002288818356 0.0 10.300000190734862
  endloop
endfacet
facet normal -0.0 -0.0 1.0
  outer loop
    vertex 18.025001525878903 0.8227233886718749 10.300000190734862
    vertex 18.025001525878903 -0.8227272033691406 10.300000190734862
    vertex 18.5 0.0 10.300000190734862
  endloop
endfacet
facet normal -0.0 -0.0 1.0
  outer loop
    vertex -9.24999713897705 -16.02147102355957 10.300000190734862
    vertex -8.300000190734863 -14.376024246215819 10.300000190734862
    vertex -9.72499942779541 -15.198747634887694 10.300000190734862
  endloop
endfacet
facet normal -0.0 -0.0 1.0
  outer loop
    vertex -8.300000190734863 -14.376024246215819 10.300000190734862
    vertex -9.24999713897705 -16.02147102355957 10.300000190734862
    vertex -8.300000190734863 -16.02147102355957 10.300000190734862
  endloop
endfacet
facet normal 0.8660256565445938 0.4999995622063139 -0.0
  outer loop
    vertex -8.082901954650879 0.0 6.041451930999756
    vertex -7.062176704406738 -1.7679500579833984 3.9999999999999996
    vertex -8.082901954650879 0.0 3.9999999999999996
  endloop
endfacet
facet normal -0.8660254229672995 -0.49999996677430936 0.0
  outer loop
    vertex 7.062178611755371 1.7679481506347656 3.9999999999999996
    vertex 8.082903861999512 0.0 3.9999999999999996
    vertex 8.082903861999512 0.0 6.041451930999756
  endloop
endfacet
facet normal -0.8660248474087705 0.500000963669687 3.5159159127618186e-17
  outer loop
    vertex 5.06217861175537 -5.2320518493652335 3.9999999999999996
    vertex 4.041449546813965 -7.000001907348633 3.9999999999999996
    vertex 4.041449546813965 -7.000001907348633 6.041451930999756
  endloop
endfacet
facet normal -0.8660256565445938 0.4999995622063139 0.0
  outer loop
    vertex 8.082903861999512 0.0 3.9999999999999996
    vertex 7.062178611755371 -1.7679500579833984 3.9999999999999996
    vertex 8.082903861999512 0.0 6.041451930999756
  endloop
endfacet
facet normal 0.8660256565445938 0.4999995622063139 -0.0
  outer loop
    vertex -5.062176704406737 -5.2320518493652335 3.9999999999999996
    vertex -4.041451454162598 -7.000001907348633 6.041451930999756
    vertex -4.041451454162598 -7.000001907348633 3.9999999999999996
  endloop
endfacet
facet normal 0.8660254229672995 -0.49999996677430936 -0.0
  outer loop
    vertex -7.062176704406738 1.7679481506347656 3.9999999999999996
    vertex -8.082901954650879 0.0 6.041451930999756
    vertex -8.082901954650879 0.0 3.9999999999999996
  endloop
endfacet
facet normal 0.0 -1.0 0.0
  outer loop
    vertex -1.9999971389770508 -13.500001907348633 3.9999999999999996
    vertex -0.7499971389770506 -13.500001907348633 2.7499999999999996
    vertex -0.7499971389770506 -13.500001907348633 3.9999999999999996
  endloop
endfacet
facet normal 0.0 -1.0 0.0
  outer loop
    vertex 0.750002861022949 -13.500001907348633 3.9999999999999996
    vertex 0.7517250600717004 -13.500001907348633 2.7517222569828323
    vertex 2.0000028610229488 -13.500001907348633 3.9999999999999996
  endloop
endfacet
facet normal -0.0 1.0 -0.0
  outer loop
    vertex -4.041451454162598 -7.000001907348633 6.041451930999756
    vertex -1.9999971389770508 -7.000001907348633 3.9999999999999996
    vertex -4.041451454162598 -7.000001907348633 3.9999999999999996
  endloop
endfacet
facet normal -0.0 1.0 -0.0
  outer loop
    vertex 4.041449546813965 -7.000001907348633 6.041451930999756
    vertex 4.041449546813965 -7.000001907348633 3.9999999999999996
    vertex 2.0000028610229488 -7.000001907348633 3.9999999999999996
  endloop
endfacet
facet normal 0.7071066335835458 3.4451472711387106e-08 0.7071069287895178
  outer loop
    vertex -0.7481224992371901 -16.02147102355957 2.748125259215564
    vertex -8.300000190734863 -14.376024246215819 10.300000190734862
    vertex -8.300000190734863 -16.02147102355957 10.300000190734862
  endloop
endfacet
facet normal 0.7071066335835458 3.4451472711387106e-08 0.7071069287895178
  outer loop
    vertex -8.300000190734863 -14.376024246215819 10.300000190734862
    vertex -0.7481224992371901 -16.02147102355957 2.748125259215564
    vertex -1.9999971389770508 -13.500001907348633 3.9999999999999996
  endloop
endfacet
facet normal 0.7071066335835458 3.4451472711387106e-08 0.7071069287895178
  outer loop
    vertex -8.300000190734863 -14.376024246215819 10.300000190734862
    vertex -1.9999971389770508 -13.500001907348633 3.9999999999999996
    vertex -4.041451454162598 -7.000001907348633 6.041451930999756
  endloop
endfacet
facet normal 0.7071066335835458 3.4451472711387106e-08 0.7071069287895178
  outer loop
    vertex -1.9999971389770508 -13.500001907348633 3.9999999999999996
    vertex -0.7481224992371901 -16.02147102355957 2.748125259215564
    vertex -0.7499971389770506 -13.500001907348633 2.7499999999999996
  endloop
endfacet
facet normal 0.7071066335835458 3.4451472711387106e-08 0.7071069287895178
  outer loop
    vertex -1.9999971389770508 -7.000001907348633 3.9999999999999996
    vertex -4.041451454162598 -7.000001907348633 6.041451930999756
    vertex -1.9999971389770508 -13.500001907348633 3.9999999999999996
  endloop
endfacet
facet normal 0.8660253683708068 -0.5000000613382045 1.4457961793381611e-08
  outer loop
    vertex 11.31634046096175 -7.399520246606121 3.9999999999999996
    vertex 10.691340446472166 -8.482051849365234 3.9999999999999996
    vertex 11.316205447402739 -7.399754133048881 2.7502700390204136
  endloop
endfacet
facet normal 0.8660257498399158 -0.49999940061385273 -0.0
  outer loop
    vertex 12.691340446472168 -5.017950057983398 3.9999999999999996
    vertex 12.06634044441922 -6.10048354655026 3.9999999999999996
    vertex 12.06634044441922 -6.10048354655026 2.7499999999999996
  endloop
endfacet
facet normal 0.8660261486949192 0.499998709774976 -7.037828717827372e-08
  outer loop
    vertex 12.065142199200976 6.102556978594478 2.7476035341221823
    vertex 12.066340482064252 6.100481660936001 3.9999999999999996
    vertex 12.691340446472168 5.017946243286132 3.9999999999999996
  endloop
endfacet
facet normal 0.866025368370807 0.5000000613382046 -0.0
  outer loop
    vertex 10.691340446472166 8.482049942016602 3.9999999999999996
    vertex 11.31634046096175 7.399518339257488 3.9999999999999996
    vertex 11.31634046096175 7.399518339257488 2.7499999999999996
  endloop
endfacet
facet normal -0.0 1.0 -0.0
  outer loop
    vertex 2.0000028610229488 13.500001907348633 3.9999999999999996
    vertex 0.7571275559371423 13.500001907348633 2.757124754091643
    vertex 0.750002861022949 13.500001907348633 3.9999999999999996
  endloop
endfacet
facet normal -0.0 1.0 -0.0
  outer loop
    vertex -0.7499971389770506 13.500001907348633 3.9999999999999996
    vertex -0.7499971389770506 13.500001907348633 2.7499999999999996
    vertex -1.9999971389770508 13.500001907348633 3.9999999999999996
  endloop
endfacet
facet normal -0.8660253683708069 0.5000000613382045 -4.549643717380875e-09
  outer loop
    vertex -10.691342353820799 8.482049942016602 3.9999999999999996
    vertex -11.313847984632268 7.403838726486159 2.754988705081973
    vertex -11.316342368310384 7.399518339257488 3.9999999999999996
  endloop
endfacet
facet normal -0.8660261486948855 0.4999987097749564 -2.885870914572396e-07
  outer loop
    vertex -12.066342389412885 6.100481660936001 3.9999999999999996
    vertex -12.07144257284787 6.091647138123304 2.7602009991657797
    vertex -12.6913423538208 5.017946243286132 3.9999999999999996
  endloop
endfacet
facet normal -0.8660257498399155 -0.4999994006138528 1.818221512349216e-08
  outer loop
    vertex -12.6913423538208 -5.017950057983398 3.9999999999999996
    vertex -12.068764745022662 -6.09628787693016 2.7548447212179004
    vertex -12.066342351767851 -6.10048354655026 3.9999999999999996
  endloop
endfacet
facet normal -0.866025368370807 -0.5000000613382046 0.0
  outer loop
    vertex -11.316342368310384 -7.399520246606121 2.7499999999999996
    vertex -10.691342353820799 -8.482051849365234 3.9999999999999996
    vertex -11.316342368310384 -7.399520246606121 3.9999999999999996
  endloop
endfacet
facet normal 0.0 -1.0 0.0
  outer loop
    vertex 4.041449546813965 7.000001907348633 6.041451930999756
    vertex 2.0000028610229488 7.000001907348633 3.9999999999999996
    vertex 4.041449546813965 7.000001907348633 3.9999999999999996
  endloop
endfacet
facet normal 0.8660258901213211 -0.49999915763886416 -3.5159125597286593e-17
  outer loop
    vertex -4.041451454162598 7.000001907348633 6.041451930999756
    vertex -5.062176704406737 5.232049942016602 3.9999999999999996
    vertex -4.041451454162598 7.000001907348633 3.9999999999999996
  endloop
endfacet
facet normal -0.8660250809865891 -0.5000005591018593 0.0
  outer loop
    vertex 4.041449546813965 7.000001907348633 3.9999999999999996
    vertex 5.06217861175537 5.232049942016602 3.9999999999999996
    vertex 4.041449546813965 7.000001907348633 6.041451930999756
  endloop
endfacet
facet normal 0.0 -1.0 0.0
  outer loop
    vertex -4.041451454162598 7.000001907348633 6.041451930999756
    vertex -4.041451454162598 7.000001907348633 3.9999999999999996
    vertex -1.9999971389770508 7.000001907348633 3.9999999999999996
  endloop
endfacet
facet normal -0.0 -0.0 1.0
  outer loop
    vertex 2.309401512145996 4.000001907348633 3.9999999999999996
    vertex 0.750002861022949 13.500001907348633 3.9999999999999996
    vertex 0.750002861022949 4.000001907348633 3.9999999999999996
  endloop
endfacet
facet normal -0.0 -0.0 1.0
  outer loop
    vertex 0.750002861022949 13.500001907348633 3.9999999999999996
    vertex 2.309401512145996 4.000001907348633 3.9999999999999996
    vertex 2.0000028610229488 7.000001907348633 3.9999999999999996
  endloop
endfacet
facet normal -0.0 -0.0 1.0
  outer loop
    vertex 2.0000028610229488 7.000001907348633 3.9999999999999996
    vertex 2.309401512145996 4.000001907348633 3.9999999999999996
    vertex 4.041449546813965 7.000001907348633 3.9999999999999996
  endloop
endfacet
facet normal -0.0 -0.0 1.0
  outer loop
    vertex 4.041449546813965 7.000001907348633 3.9999999999999996
    vertex 2.309401512145996 4.000001907348633 3.9999999999999996
    vertex 3.0890989448484687 2.6495183392574906 3.9999999999999996
  endloop
endfacet
facet normal -0.0 -0.0 1.0
  outer loop
    vertex 4.041449546813965 7.000001907348633 3.9999999999999996
    vertex 3.0890989448484687 2.6495183392574906 3.9999999999999996
    vertex 5.06217861175537 5.232049942016602 3.9999999999999996
  endloop
endfacet
facet normal -0.0 -0.0 1.0
  outer loop
    vertex 5.06217861175537 5.232049942016602 3.9999999999999996
    vertex 3.0890989448484687 2.6495183392574906 3.9999999999999996
    vertex 11.31634046096175 7.399518339257488 3.9999999999999996
  endloop
endfacet
facet normal -0.0 -0.0 1.0
  outer loop
    vertex 5.06217861175537 5.232049942016602 3.9999999999999996
    vertex 11.31634046096175 7.399518339257488 3.9999999999999996
    vertex 10.691340446472166 8.482049942016602 3.9999999999999996
  endloop
endfacet
facet normal -0.0 -0.0 1.0
  outer loop
    vertex 2.0000028610229488 13.500001907348633 3.9999999999999996
    vertex 0.750002861022949 13.500001907348633 3.9999999999999996
    vertex 2.0000028610229488 7.000001907348633 3.9999999999999996
  endloop
endfacet
facet normal -0.0 -0.0 1.0
  outer loop
    vertex 2.0000028610229488 -13.500001907348633 3.9999999999999996
    vertex 0.750002861022949 -3.9999999999999996 3.9999999999999996
    vertex 0.750002861022949 -13.500001907348633 3.9999999999999996
  endloop
endfacet
facet normal -0.0 -0.0 1.0
  outer loop
    vertex 0.750002861022949 -3.9999999999999996 3.9999999999999996
    vertex 2.0000028610229488 -13.500001907348633 3.9999999999999996
    vertex 2.0000028610229488 -7.000001907348633 3.9999999999999996
  endloop
endfacet
facet normal -0.0 -0.0 1.0
  outer loop
    vertex 0.750002861022949 -3.9999999999999996 3.9999999999999996
    vertex 2.0000028610229488 -7.000001907348633 3.9999999999999996
    vertex 2.309401512145996 -3.9999999999999996 3.9999999999999996
  endloop
endfacet
facet normal -0.0 -0.0 1.0
  outer loop
    vertex 2.309401512145996 -3.9999999999999996 3.9999999999999996
    vertex 2.0000028610229488 -7.000001907348633 3.9999999999999996
    vertex 4.041449546813965 -7.000001907348633 3.9999999999999996
  endloop
endfacet
facet normal -0.0 -0.0 1.0
  outer loop
    vertex 2.309401512145996 -3.9999999999999996 3.9999999999999996
    vertex 4.041449546813965 -7.000001907348633 3.9999999999999996
    vertex 3.0890989448484687 -2.6495202466061234 3.9999999999999996
  endloop
endfacet
facet normal -0.0 -0.0 1.0
  outer loop
    vertex 3.0890989448484687 -2.6495202466061234 3.9999999999999996
    vertex 4.041449546813965 -7.000001907348633 3.9999999999999996
    vertex 5.06217861175537 -5.2320518493652335 3.9999999999999996
  endloop
endfacet
facet normal -0.0 -0.0 1.0
  outer loop
    vertex 3.0890989448484687 -2.6495202466061234 3.9999999999999996
    vertex 5.06217861175537 -5.2320518493652335 3.9999999999999996
    vertex 11.31634046096175 -7.399520246606121 3.9999999999999996
  endloop
endfacet
facet normal -0.0 -0.0 1.0
  outer loop
    vertex 11.31634046096175 -7.399520246606121 3.9999999999999996
    vertex 5.06217861175537 -5.2320518493652335 3.9999999999999996
    vertex 10.691340446472166 -8.482051849365234 3.9999999999999996
  endloop
endfacet
facet normal -0.0 -0.0 1.0
  outer loop
    vertex -0.7499971389770506 -13.500001907348633 3.9999999999999996
    vertex -1.9999971389770508 -7.000001907348633 3.9999999999999996
    vertex -1.9999971389770508 -13.500001907348633 3.9999999999999996
  endloop
endfacet
facet normal -0.0 -0.0 1.0
  outer loop
    vertex -10.691342353820799 -8.482051849365234 3.9999999999999996
    vertex -3.089100852197102 -2.6495202466061225 3.9999999999999996
    vertex -11.316342368310384 -7.399520246606121 3.9999999999999996
  endloop
endfacet
facet normal -0.0 -0.0 1.0
  outer loop
    vertex -3.089100852197102 -2.6495202466061225 3.9999999999999996
    vertex -10.691342353820799 -8.482051849365234 3.9999999999999996
    vertex -5.062176704406737 -5.2320518493652335 3.9999999999999996
  endloop
endfacet
facet normal -0.0 -0.0 1.0
  outer loop
    vertex -3.089100852197102 -2.6495202466061225 3.9999999999999996
    vertex -5.062176704406737 -5.2320518493652335 3.9999999999999996
    vertex -4.041451454162598 -7.000001907348633 3.9999999999999996
  endloop
endfacet
facet normal -0.0 -0.0 1.0
  outer loop
    vertex -3.089100852197102 -2.6495202466061225 3.9999999999999996
    vertex -4.041451454162598 -7.000001907348633 3.9999999999999996
    vertex -1.9999971389770508 -7.000001907348633 3.9999999999999996
  endloop
endfacet
facet normal -0.0 -0.0 1.0
  outer loop
    vertex -3.089100852197102 -2.6495202466061225 3.9999999999999996
    vertex -1.9999971389770508 -7.000001907348633 3.9999999999999996
    vertex -2.3093996047973633 -3.9999999999999996 3.9999999999999996
  endloop
endfacet
facet normal -0.0 -0.0 1.0
  outer loop
    vertex -2.3093996047973633 -3.9999999999999996 3.9999999999999996
    vertex -1.9999971389770508 -7.000001907348633 3.9999999999999996
    vertex -0.7499971389770506 -3.9999999999999996 3.9999999999999996
  endloop
endfacet
facet normal -0.0 -0.0 1.0
  outer loop
    vertex -0.7499971389770506 -3.9999999999999996 3.9999999999999996
    vertex -1.9999971389770508 -7.000001907348633 3.9999999999999996
    vertex -0.7499971389770506 -13.500001907348633 3.9999999999999996
  endloop
endfacet
facet normal -0.0 -0.0 1.0
  outer loop
    vertex -12.066342351767851 -6.10048354655026 3.9999999999999996
    vertex -7.062176704406738 -1.7679500579833984 3.9999999999999996
    vertex -12.6913423538208 -5.017950057983398 3.9999999999999996
  endloop
endfacet
facet normal -0.0 -0.0 1.0
  outer loop
    vertex -7.062176704406738 -1.7679500579833984 3.9999999999999996
    vertex -12.066342351767851 -6.10048354655026 3.9999999999999996
    vertex -3.8391008356545706 -1.3504835465502605 3.9999999999999996
  endloop
endfacet
facet normal -0.0 -0.0 1.0
  outer loop
    vertex -7.062176704406738 -1.7679500579833984 3.9999999999999996
    vertex -3.8391008356545706 -1.3504835465502605 3.9999999999999996
    vertex -7.062176704406738 1.7679481506347656 3.9999999999999996
  endloop
endfacet
facet normal -0.0 -0.0 1.0
  outer loop
    vertex -7.062176704406738 1.7679481506347656 3.9999999999999996
    vertex -3.8391008356545706 -1.3504835465502605 3.9999999999999996
    vertex -4.618802070617676 0.0 3.9999999999999996
  endloop
endfacet
facet normal -0.0 -0.0 1.0
  outer loop
    vertex -7.062176704406738 1.7679481506347656 3.9999999999999996
    vertex -12.066342389412885 6.100481660936001 3.9999999999999996
    vertex -12.6913423538208 5.017946243286132 3.9999999999999996
  endloop
endfacet
facet normal -0.0 -0.0 1.0
  outer loop
    vertex -12.066342389412885 6.100481660936001 3.9999999999999996
    vertex -7.062176704406738 1.7679481506347656 3.9999999999999996
    vertex -3.839100873299603 1.3504797535873685 3.9999999999999996
  endloop
endfacet
facet normal -0.0 -0.0 1.0
  outer loop
    vertex -3.839100873299603 1.3504797535873685 3.9999999999999996
    vertex -7.062176704406738 1.7679481506347656 3.9999999999999996
    vertex -4.618802070617676 0.0 3.9999999999999996
  endloop
endfacet
facet normal -0.0 -0.0 1.0
  outer loop
    vertex -7.062176704406738 1.7679481506347656 3.9999999999999996
    vertex -8.082901954650879 0.0 3.9999999999999996
    vertex -7.062176704406738 -1.7679500579833984 3.9999999999999996
  endloop
endfacet
facet normal -0.0 -0.0 1.0
  outer loop
    vertex -3.089100852197102 2.6495183392574897 3.9999999999999996
    vertex -10.691342353820799 8.482049942016602 3.9999999999999996
    vertex -11.316342368310384 7.399518339257488 3.9999999999999996
  endloop
endfacet
facet normal -0.0 -0.0 1.0
  outer loop
    vertex -10.691342353820799 8.482049942016602 3.9999999999999996
    vertex -3.089100852197102 2.6495183392574897 3.9999999999999996
    vertex -5.062176704406737 5.232049942016602 3.9999999999999996
  endloop
endfacet
facet normal -0.0 -0.0 1.0
  outer loop
    vertex -5.062176704406737 5.232049942016602 3.9999999999999996
    vertex -3.089100852197102 2.6495183392574897 3.9999999999999996
    vertex -4.041451454162598 7.000001907348633 3.9999999999999996
  endloop
endfacet
facet normal -0.0 -0.0 1.0
  outer loop
    vertex -4.041451454162598 7.000001907348633 3.9999999999999996
    vertex -3.089100852197102 2.6495183392574897 3.9999999999999996
    vertex -1.9999971389770508 7.000001907348633 3.9999999999999996
  endloop
endfacet
facet normal -0.0 -0.0 1.0
  outer loop
    vertex -1.9999971389770508 7.000001907348633 3.9999999999999996
    vertex -3.089100852197102 2.6495183392574897 3.9999999999999996
    vertex -2.3093996047973633 4.000001907348633 3.9999999999999996
  endloop
endfacet
facet normal -0.0 -0.0 1.0
  outer loop
    vertex -1.9999971389770508 7.000001907348633 3.9999999999999996
    vertex -2.3093996047973633 4.000001907348633 3.9999999999999996
    vertex -0.7499971389770506 4.000001907348633 3.9999999999999996
  endloop
endfacet
facet normal -0.0 -0.0 1.0
  outer loop
    vertex -1.9999971389770508 7.000001907348633 3.9999999999999996
    vertex -0.7499971389770506 4.000001907348633 3.9999999999999996
    vertex -1.9999971389770508 13.500001907348633 3.9999999999999996
  endloop
endfacet
facet normal -0.0 -0.0 1.0
  outer loop
    vertex -1.9999971389770508 13.500001907348633 3.9999999999999996
    vertex -0.7499971389770506 4.000001907348633 3.9999999999999996
    vertex -0.7499971389770506 13.500001907348633 3.9999999999999996
  endloop
endfacet
facet normal -0.7071068629575473 -2.1294181664178744e-07 0.7071066994155063
  outer loop
    vertex 4.041449546813965 -7.000001907348633 6.041451930999756
    vertex 2.0000028610229488 -13.500001907348633 3.9999999999999996
    vertex 8.300002098083496 -14.376024246215819 10.300000190734862
  endloop
endfacet
facet normal -0.7071068629575473 -2.1294181664178744e-07 0.7071066994155063
  outer loop
    vertex 2.0000028610229488 -13.500001907348633 3.9999999999999996
    vertex 4.041449546813965 -7.000001907348633 6.041451930999756
    vertex 2.0000028610229488 -7.000001907348633 3.9999999999999996
  endloop
endfacet
facet normal -0.7071068629575473 -2.1294181664178744e-07 0.7071066994155063
  outer loop
    vertex 8.300002098083496 -14.376024246215819 10.300000190734862
    vertex 0.7517250600717004 -16.02147102355957 2.7517222569828323
    vertex 8.300002098083496 -16.02147102355957 10.300000190734862
  endloop
endfacet
facet normal -0.7071068629575473 -2.1294181664178744e-07 0.7071066994155063
  outer loop
    vertex 0.7517250600717004 -16.02147102355957 2.7517222569828323
    vertex 8.300002098083496 -14.376024246215819 10.300000190734862
    vertex 0.7517250600717004 -13.500001907348633 2.7517222569828323
  endloop
endfacet
facet normal -0.7071068629575473 -2.1294181664178744e-07 0.7071066994155063
  outer loop
    vertex 0.7517250600717004 -13.500001907348633 2.7517222569828323
    vertex 8.300002098083496 -14.376024246215819 10.300000190734862
    vertex 2.0000028610229488 -13.500001907348633 3.9999999999999996
  endloop
endfacet
facet normal -0.3535533540719632 0.6123724232761679 0.7071068102029134
  outer loop
    vertex -9.72499942779541 -15.198747634887694 10.300000190734862
    vertex -11.316342368310384 -7.399520246606121 2.7499999999999996
    vertex -13.500229423788698 -8.659855769440636 2.7495391999485177
  endloop
endfacet
facet normal -0.3535533540719632 0.6123724232761679 0.7071068102029134
  outer loop
    vertex -11.316342368310384 -7.399520246606121 2.7499999999999996
    vertex -9.72499942779541 -15.198747634887694 10.300000190734862
    vertex -10.691342353820799 -8.482051849365234 3.9999999999999996
  endloop
endfacet
facet normal -0.3535533540719632 0.6123724232761679 0.7071068102029134
  outer loop
    vertex -10.691342353820799 -8.482051849365234 3.9999999999999996
    vertex -9.72499942779541 -15.198747634887694 10.300000190734862
    vertex -5.062176704406737 -5.2320518493652335 3.9999999999999996
  endloop
endfacet
facet normal -0.3535533540719632 0.6123724232761679 0.7071068102029134
  outer loop
    vertex -5.062176704406737 -5.2320518493652335 3.9999999999999996
    vertex -9.72499942779541 -15.198747634887694 10.300000190734862
    vertex -8.300000190734863 -14.376024246215819 10.300000190734862
  endloop
endfacet
facet normal -0.3535533540719632 0.6123724232761679 0.7071068102029134
  outer loop
    vertex -5.062176704406737 -5.2320518493652335 3.9999999999999996
    vertex -8.300000190734863 -14.376024246215819 10.300000190734862
    vertex -4.041451454162598 -7.000001907348633 6.041451930999756
  endloop
endfacet
facet normal 0.0 -1.0 0.0
  outer loop
    vertex 2.309401512145996 4.000001907348633 3.9999999999999996
    vertex -2.3093996047973633 4.000001907348633 0.0
    vertex 2.309401512145996 4.000001907348633 0.0
  endloop
endfacet
facet normal 0.0 -1.0 0.0
  outer loop
    vertex -2.3093996047973633 4.000001907348633 0.0
    vertex 2.309401512145996 4.000001907348633 3.9999999999999996
    vertex 0.750002861022949 4.000001907348633 2.7499999999999996
  endloop
endfacet
facet normal 0.0 -1.0 0.0
  outer loop
    vertex 0.750002861022949 4.000001907348633 2.7499999999999996
    vertex 2.309401512145996 4.000001907348633 3.9999999999999996
    vertex 0.750002861022949 4.000001907348633 3.9999999999999996
  endloop
endfacet
facet normal 0.0 -1.0 0.0
  outer loop
    vertex -2.3093996047973633 4.000001907348633 0.0
    vertex -0.7499971389770506 4.000001907348633 2.7499999999999996
    vertex -2.3093996047973633 4.000001907348633 3.9999999999999996
  endloop
endfacet
facet normal 0.0 -1.0 0.0
  outer loop
    vertex -0.7499971389770506 4.000001907348633 2.7499999999999996
    vertex -2.3093996047973633 4.000001907348633 0.0
    vertex 0.750002861022949 4.000001907348633 2.7499999999999996
  endloop
endfacet
facet normal 0.0 -1.0 0.0
  outer loop
    vertex -2.3093996047973633 4.000001907348633 3.9999999999999996
    vertex -0.7499971389770506 4.000001907348633 2.7499999999999996
    vertex -0.7499971389770506 4.000001907348633 3.9999999999999996
  endloop
endfacet
facet normal -0.7071068629819321 2.1295132233757444e-07 0.7071066993911215
  outer loop
    vertex 8.300002098083496 14.376020431518553 10.300000190734862
    vertex 2.0000028610229488 7.000001907348633 3.9999999999999996
    vertex 4.041449546813965 7.000001907348633 6.041451930999756
  endloop
endfacet
facet normal -0.7071068629819321 2.1295132233757444e-07 0.7071066993911215
  outer loop
    vertex 2.0000028610229488 7.000001907348633 3.9999999999999996
    vertex 8.300002098083496 14.376020431518553 10.300000190734862
    vertex 2.0000028610229488 13.500001907348633 3.9999999999999996
  endloop
endfacet
facet normal -0.7071068629819321 2.1295132233757444e-07 0.7071066993911215
  outer loop
    vertex 2.0000028610229488 13.500001907348633 3.9999999999999996
    vertex 8.300002098083496 14.376020431518553 10.300000190734862
    vertex 0.7571275559371423 13.500001907348633 2.757124754091643
  endloop
endfacet
facet normal -0.7071068629819321 2.1295132233757444e-07 0.7071066993911215
  outer loop
    vertex 0.7571275559371423 13.500001907348633 2.757124754091643
    vertex 8.300002098083496 14.376020431518553 10.300000190734862
    vertex 0.7571275559371423 16.02147102355957 2.757124754091643
  endloop
endfacet
facet normal -0.7071068629819321 2.1295132233757444e-07 0.7071066993911215
  outer loop
    vertex 0.7571275559371423 16.02147102355957 2.757124754091643
    vertex 8.300002098083496 14.376020431518553 10.300000190734862
    vertex 8.300002098083496 16.02147102355957 10.300000190734862
  endloop
endfacet
facet normal -0.9999958685483004 0.0003760510391030833 -0.0028498196340512334
  outer loop
    vertex 0.750002861022949 13.500001907348633 3.9999999999999996
    vertex 0.750002861022949 4.000001907348633 2.7499999999999996
    vertex 0.750002861022949 4.000001907348633 3.9999999999999996
  endloop
endfacet
facet normal -0.9999958685483004 0.0003760510391030833 -0.0028498196340512334
  outer loop
    vertex 0.750002861022949 4.000001907348633 2.7499999999999996
    vertex 0.750002861022949 13.500001907348633 3.9999999999999996
    vertex 0.7571275559371423 13.500001907348633 2.757124754091643
  endloop
endfacet
facet normal -0.0 -0.0 1.0
  outer loop
    vertex 12.06634044441922 -6.10048354655026 3.9999999999999996
    vertex 4.618803977966309 0.0 3.9999999999999996
    vertex 3.839098928305938 -1.3504835465502605 3.9999999999999996
  endloop
endfacet
facet normal -0.0 -0.0 1.0
  outer loop
    vertex 4.618803977966309 0.0 3.9999999999999996
    vertex 12.06634044441922 -6.10048354655026 3.9999999999999996
    vertex 7.062178611755371 -1.7679500579833984 3.9999999999999996
  endloop
endfacet
facet normal -0.0 -0.0 1.0
  outer loop
    vertex 7.062178611755371 -1.7679500579833984 3.9999999999999996
    vertex 12.06634044441922 -6.10048354655026 3.9999999999999996
    vertex 12.691340446472168 -5.017950057983398 3.9999999999999996
  endloop
endfacet
facet normal -0.0 -0.0 1.0
  outer loop
    vertex 8.082903861999512 0.0 3.9999999999999996
    vertex 7.062178611755371 1.7679481506347656 3.9999999999999996
    vertex 7.062178611755371 -1.7679500579833984 3.9999999999999996
  endloop
endfacet
facet normal -0.0 -0.0 1.0
  outer loop
    vertex 4.618803977966309 0.0 3.9999999999999996
    vertex 12.066340482064252 6.100481660936001 3.9999999999999996
    vertex 3.83909896595097 1.3504797535873685 3.9999999999999996
  endloop
endfacet
facet normal -0.0 -0.0 1.0
  outer loop
    vertex 12.066340482064252 6.100481660936001 3.9999999999999996
    vertex 4.618803977966309 0.0 3.9999999999999996
    vertex 7.062178611755371 1.7679481506347656 3.9999999999999996
  endloop
endfacet
facet normal -0.0 -0.0 1.0
  outer loop
    vertex 7.062178611755371 1.7679481506347656 3.9999999999999996
    vertex 4.618803977966309 0.0 3.9999999999999996
    vertex 7.062178611755371 -1.7679500579833984 3.9999999999999996
  endloop
endfacet
facet normal -0.0 -0.0 1.0
  outer loop
    vertex 12.066340482064252 6.100481660936001 3.9999999999999996
    vertex 7.062178611755371 1.7679481506347656 3.9999999999999996
    vertex 12.691340446472168 5.017946243286132 3.9999999999999996
  endloop
endfacet
facet normal 0.35355325089299583 -0.6123724941084331 0.7071068004498411
  outer loop
    vertex 5.06217861175537 5.232049942016602 3.9999999999999996
    vertex 8.300002098083496 14.376020431518553 10.300000190734862
    vertex 4.041449546813965 7.000001907348633 6.041451930999756
  endloop
endfacet
facet normal 0.35355325089299583 -0.6123724941084331 0.7071068004498411
  outer loop
    vertex 8.300002098083496 14.376020431518553 10.300000190734862
    vertex 5.06217861175537 5.232049942016602 3.9999999999999996
    vertex 10.691340446472166 8.482049942016602 3.9999999999999996
  endloop
endfacet
facet normal 0.35355325089299583 -0.6123724941084331 0.7071068004498411
  outer loop
    vertex 8.300002098083496 14.376020431518553 10.300000190734862
    vertex 10.691340446472166 8.482049942016602 3.9999999999999996
    vertex 9.725001335144043 15.198747634887694 10.300000190734862
  endloop
endfacet
facet normal 0.35355325089299583 -0.6123724941084331 0.7071068004498411
  outer loop
    vertex 9.725001335144043 15.198747634887694 10.300000190734862
    vertex 10.691340446472166 8.482049942016602 3.9999999999999996
    vertex 13.501412700098793 8.65781097493806 2.7471802941028867
  endloop
endfacet
facet normal 0.35355325089299583 -0.6123724941084331 0.7071068004498411
  outer loop
    vertex 13.501412700098793 8.65781097493806 2.7471802941028867
    vertex 10.691340446472166 8.482049942016602 3.9999999999999996
    vertex 11.31634046096175 7.399518339257488 2.7499999999999996
  endloop
endfacet
facet normal -0.3535533647878542 0.6123724078253766 0.7071068182257453
  outer loop
    vertex 8.082903861999512 0.0 6.041451930999756
    vertex 12.691340446472168 5.017946243286132 3.9999999999999996
    vertex 7.062178611755371 1.7679481506347656 3.9999999999999996
  endloop
endfacet
facet normal -0.3535533647878542 0.6123724078253766 0.7071068182257453
  outer loop
    vertex 12.691340446472168 5.017946243286132 3.9999999999999996
    vertex 8.082903861999512 0.0 6.041451930999756
    vertex 16.600002288818356 0.0 10.300000190734862
  endloop
endfacet
facet normal -0.3535533647878542 0.6123724078253766 0.7071068182257453
  outer loop
    vertex 12.691340446472168 5.017946243286132 3.9999999999999996
    vertex 16.600002288818356 0.0 10.300000190734862
    vertex 14.248804613751759 7.363291536699947 2.7476035341221823
  endloop
endfacet
facet normal -0.3535533647878542 0.6123724078253766 0.7071068182257453
  outer loop
    vertex 14.248804613751759 7.363291536699947 2.7476035341221823
    vertex 16.600002288818356 0.0 10.300000190734862
    vertex 18.025001525878903 0.8227233886718749 10.300000190734862
  endloop
endfacet
facet normal -0.3535533647878542 0.6123724078253766 0.7071068182257453
  outer loop
    vertex 14.248804613751759 7.363291536699947 2.7476035341221823
    vertex 12.065142199200976 6.102556978594478 2.7476035341221823
    vertex 12.691340446472168 5.017946243286132 3.9999999999999996
  endloop
endfacet
facet normal -0.8660253838377188 -0.5000000345484829 -4.979297130329051e-07
  outer loop
    vertex 2.309401512145996 4.000001907348633 3.9999999999999996
    vertex 3.0890989448484687 2.6495183392574906 2.7499999999999996
    vertex 3.0890989448484687 2.6495183392574906 3.9999999999999996
  endloop
endfacet
facet normal -0.8660253838377188 -0.5000000345484829 -4.979297130329051e-07
  outer loop
    vertex 3.83909896595097 1.3504797535873685 3.9999999999999996
    vertex 4.618803977966309 0.0 0.0
    vertex 4.618803977966309 0.0 3.9999999999999996
  endloop
endfacet
facet normal -0.8660253838377188 -0.5000000345484829 -4.979297130329051e-07
  outer loop
    vertex 4.618803977966309 0.0 0.0
    vertex 3.83909896595097 1.3504797535873685 3.9999999999999996
    vertex 3.83909896595097 1.3504797535873685 2.7499999999999996
  endloop
endfacet
facet normal -0.8660253838377188 -0.5000000345484829 -4.979297130329051e-07
  outer loop
    vertex 4.618803977966309 0.0 0.0
    vertex 3.83909896595097 1.3504797535873685 2.7499999999999996
    vertex 2.309401512145996 4.000001907348633 0.0
  endloop
endfacet
facet normal -0.8660253838377188 -0.5000000345484829 -4.979297130329051e-07
  outer loop
    vertex 2.309401512145996 4.000001907348633 0.0
    vertex 3.83909896595097 1.3504797535873685 2.7499999999999996
    vertex 3.0890989448484687 2.6495183392574906 2.7499999999999996
  endloop
endfacet
facet normal -0.8660253838377188 -0.5000000345484829 -4.979297130329051e-07
  outer loop
    vertex 2.309401512145996 4.000001907348633 0.0
    vertex 3.0890989448484687 2.6495183392574906 2.7499999999999996
    vertex 2.309401512145996 4.000001907348633 3.9999999999999996
  endloop
endfacet
facet normal -0.3535534467046974 -0.6123723260155399 0.7071068481167087
  outer loop
    vertex 13.310729294719007 -6.815422474605862 2.7530373760175917
    vertex 12.691340446472168 -5.017950057983398 3.9999999999999996
    vertex 12.06634044441922 -6.10048354655026 2.7499999999999996
  endloop
endfacet
facet normal -0.3535534467046974 -0.6123723260155399 0.7071068481167087
  outer loop
    vertex 12.691340446472168 -5.017950057983398 3.9999999999999996
    vertex 8.082903861999512 0.0 6.041451930999756
    vertex 7.062178611755371 -1.7679500579833984 3.9999999999999996
  endloop
endfacet
facet normal -0.3535534467046974 -0.6123723260155399 0.7071068481167087
  outer loop
    vertex 8.082903861999512 0.0 6.041451930999756
    vertex 12.691340446472168 -5.017950057983398 3.9999999999999996
    vertex 16.600002288818356 0.0 10.300000190734862
  endloop
endfacet
facet normal -0.3535534467046974 -0.6123723260155399 0.7071068481167087
  outer loop
    vertex 16.600002288818356 0.0 10.300000190734862
    vertex 12.691340446472168 -5.017950057983398 3.9999999999999996
    vertex 13.310729294719007 -6.815422474605862 2.7530373760175917
  endloop
endfacet
facet normal -0.3535534467046974 -0.6123723260155399 0.7071068481167087
  outer loop
    vertex 16.600002288818356 0.0 10.300000190734862
    vertex 13.310729294719007 -6.815422474605862 2.7530373760175917
    vertex 14.252671021645517 -7.356596407800012 2.7553365216669983
  endloop
endfacet
facet normal -0.3535534467046974 -0.6123723260155399 0.7071068481167087
  outer loop
    vertex 16.600002288818356 0.0 10.300000190734862
    vertex 14.252671021645517 -7.356596407800012 2.7553365216669983
    vertex 18.025001525878903 -0.8227272033691406 10.300000190734862
  endloop
endfacet
facet normal 1.0 -0.0 -0.0
  outer loop
    vertex -0.7499971389770506 13.500001907348633 2.7499999999999996
    vertex -0.7499971389770506 4.000001907348633 3.9999999999999996
    vertex -0.7499971389770506 4.000001907348633 2.7499999999999996
  endloop
endfacet
facet normal 1.0 -0.0 -0.0
  outer loop
    vertex -0.7499971389770506 4.000001907348633 3.9999999999999996
    vertex -0.7499971389770506 13.500001907348633 2.7499999999999996
    vertex -0.7499971389770506 13.500001907348633 3.9999999999999996
  endloop
endfacet
facet normal 0.7071066335693281 -3.445871899635749e-08 0.7071069288037353
  outer loop
    vertex -4.041451454162598 7.000001907348633 6.041451930999756
    vertex -8.300000190734863 16.02147102355957 10.300000190734862
    vertex -8.300000190734863 14.376020431518553 10.300000190734862
  endloop
endfacet
facet normal 0.7071066335693281 -3.445871899635749e-08 0.7071069288037353
  outer loop
    vertex -8.300000190734863 16.02147102355957 10.300000190734862
    vertex -4.041451454162598 7.000001907348633 6.041451930999756
    vertex -1.9999971389770508 13.500001907348633 3.9999999999999996
  endloop
endfacet
facet normal 0.7071066335693281 -3.445871899635749e-08 0.7071069288037353
  outer loop
    vertex -8.300000190734863 16.02147102355957 10.300000190734862
    vertex -1.9999971389770508 13.500001907348633 3.9999999999999996
    vertex -0.7546348705228846 16.02147102355957 2.754637627849216
  endloop
endfacet
facet normal 0.7071066335693281 -3.445871899635749e-08 0.7071069288037353
  outer loop
    vertex -1.9999971389770508 13.500001907348633 3.9999999999999996
    vertex -4.041451454162598 7.000001907348633 6.041451930999756
    vertex -1.9999971389770508 7.000001907348633 3.9999999999999996
  endloop
endfacet
facet normal 0.7071066335693281 -3.445871899635749e-08 0.7071069288037353
  outer loop
    vertex -0.7546348705228846 16.02147102355957 2.754637627849216
    vertex -1.9999971389770508 13.500001907348633 3.9999999999999996
    vertex -0.7499971389770506 13.500001907348633 2.7499999999999996
  endloop
endfacet
facet normal -0.0 1.0 -0.0
  outer loop
    vertex -9.24999713897705 16.02147102355957 0.0
    vertex -0.7546348705228846 16.02147102355957 2.754637627849216
    vertex 9.25000286102295 16.02147102355957 0.0
  endloop
endfacet
facet normal -0.0 1.0 -0.0
  outer loop
    vertex -0.7546348705228846 16.02147102355957 2.754637627849216
    vertex -9.24999713897705 16.02147102355957 0.0
    vertex -9.24999713897705 16.02147102355957 10.300000190734862
  endloop
endfacet
facet normal -0.0 1.0 -0.0
  outer loop
    vertex -0.7546348705228846 16.02147102355957 2.754637627849216
    vertex -9.24999713897705 16.02147102355957 10.300000190734862
    vertex -8.300000190734863 16.02147102355957 10.300000190734862
  endloop
endfacet
facet normal -0.0 1.0 -0.0
  outer loop
    vertex 9.25000286102295 16.02147102355957 0.0
    vertex 0.7571275559371423 16.02147102355957 2.757124754091643
    vertex 9.25000286102295 16.02147102355957 10.300000190734862
  endloop
endfacet
facet normal -0.0 1.0 -0.0
  outer loop
    vertex 0.7571275559371423 16.02147102355957 2.757124754091643
    vertex 9.25000286102295 16.02147102355957 0.0
    vertex -0.7546348705228846 16.02147102355957 2.754637627849216
  endloop
endfacet
facet normal -0.0 1.0 -0.0
  outer loop
    vertex 9.25000286102295 16.02147102355957 10.300000190734862
    vertex 0.7571275559371423 16.02147102355957 2.757124754091643
    vertex 8.300002098083496 16.02147102355957 10.300000190734862
  endloop
endfacet
facet normal -0.002128893072369852 -0.0004574347118141469 0.9999976292810754
  outer loop
    vertex 0.750002861022949 4.000001907348633 2.7499999999999996
    vertex -0.7499971389770506 13.500001907348633 2.7499999999999996
    vertex -0.7499971389770506 4.000001907348633 2.7499999999999996
  endloop
endfacet
facet normal -0.002128893072369852 -0.0004574347118141469 0.9999976292810754
  outer loop
    vertex -0.7499971389770506 13.500001907348633 2.7499999999999996
    vertex 0.7571275559371423 16.02147102355957 2.757124754091643
    vertex -0.7546348705228846 16.02147102355957 2.754637627849216
  endloop
endfacet
facet normal -0.002128893072369852 -0.0004574347118141469 0.9999976292810754
  outer loop
    vertex 0.7571275559371423 16.02147102355957 2.757124754091643
    vertex -0.7499971389770506 13.500001907348633 2.7499999999999996
    vertex 0.750002861022949 4.000001907348633 2.7499999999999996
  endloop
endfacet
facet normal -0.002128893072369852 -0.0004574347118141469 0.9999976292810754
  outer loop
    vertex 0.7571275559371423 16.02147102355957 2.757124754091643
    vertex 0.750002861022949 4.000001907348633 2.7499999999999996
    vertex 0.7571275559371423 13.500001907348633 2.757124754091643
  endloop
endfacet
facet normal 0.002444159648610497 0.0032199256999271538 0.9999918290476673
  outer loop
    vertex -12.07144257284787 6.091647138123304 2.7602009991657797
    vertex -13.497504677137155 8.664573284591627 2.754988705081973
    vertex -14.255099265352754 7.352381696228773 2.7602009991657797
  endloop
endfacet
facet normal 0.002444159648610497 0.0032199256999271538 0.9999918290476673
  outer loop
    vertex -13.497504677137155 8.664573284591627 2.754988705081973
    vertex -12.07144257284787 6.091647138123304 2.7602009991657797
    vertex -11.313847984632268 7.403838726486159 2.754988705081973
  endloop
endfacet
facet normal 0.002444159648610497 0.0032199256999271538 0.9999918290476673
  outer loop
    vertex -11.313847984632268 7.403838726486159 2.754988705081973
    vertex -12.07144257284787 6.091647138123304 2.7602009991657797
    vertex -3.839100873299603 1.3504797535873685 2.7499999999999996
  endloop
endfacet
facet normal 0.002444159648610497 0.0032199256999271538 0.9999918290476673
  outer loop
    vertex -11.313847984632268 7.403838726486159 2.754988705081973
    vertex -3.839100873299603 1.3504797535873685 2.7499999999999996
    vertex -3.089100852197102 2.6495183392574897 2.7499999999999996
  endloop
endfacet
facet normal -0.5002267866303102 -0.8658921295337153 -0.001995482167840169
  outer loop
    vertex -3.089100852197102 2.6495183392574897 3.9999999999999996
    vertex -11.313847984632268 7.403838726486159 2.754988705081973
    vertex -3.089100852197102 2.6495183392574897 2.7499999999999996
  endloop
endfacet
facet normal -0.5002267866303102 -0.8658921295337153 -0.001995482167840169
  outer loop
    vertex -11.313847984632268 7.403838726486159 2.754988705081973
    vertex -3.089100852197102 2.6495183392574897 3.9999999999999996
    vertex -11.316342368310384 7.399518339257488 3.9999999999999996
  endloop
endfacet
facet normal 0.499528904102915 0.866287611371613 -0.004080238939798616
  outer loop
    vertex -12.07144257284787 6.091647138123304 2.7602009991657797
    vertex -3.839100873299603 1.3504797535873685 3.9999999999999996
    vertex -3.839100873299603 1.3504797535873685 2.7499999999999996
  endloop
endfacet
facet normal 0.499528904102915 0.866287611371613 -0.004080238939798616
  outer loop
    vertex -3.839100873299603 1.3504797535873685 3.9999999999999996
    vertex -12.07144257284787 6.091647138123304 2.7602009991657797
    vertex -12.066342389412885 6.100481660936001 3.9999999999999996
  endloop
endfacet
facet normal 0.49977775125540147 -0.8661515132802692 -0.0019378834830451664
  outer loop
    vertex -3.8391008356545706 -1.3504835465502605 3.9999999999999996
    vertex -12.068764745022662 -6.09628787693016 2.7548447212179004
    vertex -3.8391008356545706 -1.3504835465502605 2.7499999999999996
  endloop
endfacet
facet normal 0.49977775125540147 -0.8661515132802692 -0.0019378834830451664
  outer loop
    vertex -12.068764745022662 -6.09628787693016 2.7548447212179004
    vertex -3.8391008356545706 -1.3504835465502605 3.9999999999999996
    vertex -12.066342351767851 -6.10048354655026 3.9999999999999996
  endloop
endfacet
facet normal -0.4999999917882053 0.8660254085255206 1.7906786870085452e-16
  outer loop
    vertex -11.316342368310384 -7.399520246606121 3.9999999999999996
    vertex -3.089100852197102 -2.6495202466061225 2.7499999999999996
    vertex -11.316342368310384 -7.399520246606121 2.7499999999999996
  endloop
endfacet
facet normal -0.4999999917882053 0.8660254085255206 1.7906786870085452e-16
  outer loop
    vertex -3.089100852197102 -2.6495202466061225 2.7499999999999996
    vertex -11.316342368310384 -7.399520246606121 3.9999999999999996
    vertex -3.089100852197102 -2.6495202466061225 3.9999999999999996
  endloop
endfacet
facet normal -0.0011814057922173435 2.0166546374957505e-05 0.9999993019365888
  outer loop
    vertex -0.7481224992371901 -16.02147102355957 2.748125259215564
    vertex -0.7499971389770506 -3.9999999999999996 2.7499999999999996
    vertex -0.7499971389770506 -13.500001907348633 2.7499999999999996
  endloop
endfacet
facet normal -0.0011814057922173435 2.0166546374957505e-05 0.9999993019365888
  outer loop
    vertex -0.7499971389770506 -3.9999999999999996 2.7499999999999996
    vertex -0.7481224992371901 -16.02147102355957 2.748125259215564
    vertex 0.750002861022949 -3.9999999999999996 2.7499999999999996
  endloop
endfacet
facet normal -0.0011814057922173435 2.0166546374957505e-05 0.9999993019365888
  outer loop
    vertex 0.750002861022949 -3.9999999999999996 2.7499999999999996
    vertex -0.7481224992371901 -16.02147102355957 2.748125259215564
    vertex 0.7517250600717004 -16.02147102355957 2.7517222569828323
  endloop
endfacet
facet normal -0.0011814057922173435 2.0166546374957505e-05 0.9999993019365888
  outer loop
    vertex 0.750002861022949 -3.9999999999999996 2.7499999999999996
    vertex 0.7517250600717004 -16.02147102355957 2.7517222569828323
    vertex 0.7517250600717004 -13.500001907348633 2.7517222569828323
  endloop
endfacet
facet normal 1.0 -0.0 -0.0
  outer loop
    vertex -0.7499971389770506 -3.9999999999999996 2.7499999999999996
    vertex -0.7499971389770506 -13.500001907348633 3.9999999999999996
    vertex -0.7499971389770506 -13.500001907348633 2.7499999999999996
  endloop
endfacet
facet normal 1.0 -0.0 -0.0
  outer loop
    vertex -0.7499971389770506 -13.500001907348633 3.9999999999999996
    vertex -0.7499971389770506 -3.9999999999999996 2.7499999999999996
    vertex -0.7499971389770506 -3.9999999999999996 3.9999999999999996
  endloop
endfacet
facet normal -0.999999758609322 -9.070445859681684e-05 -0.0006888787984433818
  outer loop
    vertex 0.750002861022949 -3.9999999999999996 3.9999999999999996
    vertex 0.7517250600717004 -13.500001907348633 2.7517222569828323
    vertex 0.750002861022949 -13.500001907348633 3.9999999999999996
  endloop
endfacet
facet normal -0.999999758609322 -9.070445859681684e-05 -0.0006888787984433818
  outer loop
    vertex 0.7517250600717004 -13.500001907348633 2.7517222569828323
    vertex 0.750002861022949 -3.9999999999999996 3.9999999999999996
    vertex 0.750002861022949 -3.9999999999999996 2.7499999999999996
  endloop
endfacet
facet normal -0.4999999917882053 -0.8660254085255206 -1.7906786870085422e-16
  outer loop
    vertex 12.06634044441922 -6.10048354655026 3.9999999999999996
    vertex 3.839098928305938 -1.3504835465502605 2.7499999999999996
    vertex 12.06634044441922 -6.10048354655026 2.7499999999999996
  endloop
endfacet
facet normal -0.4999999917882053 -0.8660254085255206 -1.7906786870085422e-16
  outer loop
    vertex 3.839098928305938 -1.3504835465502605 2.7499999999999996
    vertex 12.06634044441922 -6.10048354655026 3.9999999999999996
    vertex 3.839098928305938 -1.3504835465502605 3.9999999999999996
  endloop
endfacet
facet normal -0.5001090254389612 0.8659619182311394 0.0009585655625780555
  outer loop
    vertex 3.83909896595097 1.3504797535873685 2.7499999999999996
    vertex 12.066340482064252 6.100481660936001 3.9999999999999996
    vertex 12.065142199200976 6.102556978594478 2.7476035341221823
  endloop
endfacet
facet normal -0.5001090254389612 0.8659619182311394 0.0009585655625780555
  outer loop
    vertex 12.066340482064252 6.100481660936001 3.9999999999999996
    vertex 3.83909896595097 1.3504797535873685 2.7499999999999996
    vertex 3.83909896595097 1.3504797535873685 3.9999999999999996
  endloop
endfacet
facet normal 0.4999999917882051 -0.8660254085255208 1.7906786870085437e-16
  outer loop
    vertex 11.31634046096175 7.399518339257488 3.9999999999999996
    vertex 3.0890989448484687 2.6495183392574906 2.7499999999999996
    vertex 11.31634046096175 7.399518339257488 2.7499999999999996
  endloop
endfacet
facet normal 0.4999999917882051 -0.8660254085255208 1.7906786870085437e-16
  outer loop
    vertex 3.0890989448484687 2.6495183392574906 2.7499999999999996
    vertex 11.31634046096175 7.399518339257488 3.9999999999999996
    vertex 3.0890989448484687 2.6495183392574906 3.9999999999999996
  endloop
endfacet
facet normal -0.866025373049073 -0.5000000532352108 -1.8076365763784408e-08
  outer loop
    vertex -9.72499942779541 -15.198747634887694 10.300000190734862
    vertex -9.24999713897705 -16.02147102355957 0.0
    vertex -9.24999713897705 -16.02147102355957 10.300000190734862
  endloop
endfacet
facet normal -0.866025373049073 -0.5000000532352108 -1.8076365763784408e-08
  outer loop
    vertex -9.24999713897705 -16.02147102355957 0.0
    vertex -9.72499942779541 -15.198747634887694 10.300000190734862
    vertex -13.500229423788698 -8.659855769440636 2.7495391999485177
  endloop
endfacet
facet normal -0.866025373049073 -0.5000000532352108 -1.8076365763784408e-08
  outer loop
    vertex -9.24999713897705 -16.02147102355957 0.0
    vertex -13.500229423788698 -8.659855769440636 2.7495391999485177
    vertex -18.5 0.0 0.0
  endloop
endfacet
facet normal -0.866025373049073 -0.5000000532352108 -1.8076365763784408e-08
  outer loop
    vertex -18.5 0.0 0.0
    vertex -13.500229423788698 -8.659855769440636 2.7495391999485177
    vertex -14.252421437527547 -7.357022435035629 2.7548447212179004
  endloop
endfacet
facet normal -0.866025373049073 -0.5000000532352108 -1.8076365763784408e-08
  outer loop
    vertex -18.5 0.0 0.0
    vertex -14.252421437527547 -7.357022435035629 2.7548447212179004
    vertex -18.024997711181637 -0.8227272033691406 10.300000190734862
  endloop
endfacet
facet normal -0.866025373049073 -0.5000000532352108 -1.8076365763784408e-08
  outer loop
    vertex -18.5 0.0 0.0
    vertex -18.024997711181637 -0.8227272033691406 10.300000190734862
    vertex -18.5 0.0 10.300000190734862
  endloop
endfacet
facet normal 0.0013014331512275282 -0.00185056346174667 0.9999974408400388
  outer loop
    vertex -13.500229423788698 -8.659855769440636 2.7495391999485177
    vertex -12.068764745022662 -6.09628787693016 2.7548447212179004
    vertex -14.252421437527547 -7.357022435035629 2.7548447212179004
  endloop
endfacet
facet normal 0.0013014331512275282 -0.00185056346174667 0.9999974408400388
  outer loop
    vertex -12.068764745022662 -6.09628787693016 2.7548447212179004
    vertex -13.500229423788698 -8.659855769440636 2.7495391999485177
    vertex -11.316342368310384 -7.399520246606121 2.7499999999999996
  endloop
endfacet
facet normal 0.0013014331512275282 -0.00185056346174667 0.9999974408400388
  outer loop
    vertex -12.068764745022662 -6.09628787693016 2.7548447212179004
    vertex -11.316342368310384 -7.399520246606121 2.7499999999999996
    vertex -3.8391008356545706 -1.3504835465502605 2.7499999999999996
  endloop
endfacet
facet normal 0.0013014331512275282 -0.00185056346174667 0.9999974408400388
  outer loop
    vertex -3.8391008356545706 -1.3504835465502605 2.7499999999999996
    vertex -11.316342368310384 -7.399520246606121 2.7499999999999996
    vertex -3.089100852197102 -2.6495202466061225 2.7499999999999996
  endloop
endfacet
facet normal 0.35355330347335046 0.612372476354504 0.7071067895350275
  outer loop
    vertex 8.300002098083496 -14.376024246215819 10.300000190734862
    vertex 5.06217861175537 -5.2320518493652335 3.9999999999999996
    vertex 4.041449546813965 -7.000001907348633 6.041451930999756
  endloop
endfacet
facet normal 0.35355330347335046 0.612372476354504 0.7071067895350275
  outer loop
    vertex 5.06217861175537 -5.2320518493652335 3.9999999999999996
    vertex 8.300002098083496 -14.376024246215819 10.300000190734862
    vertex 10.691340446472166 -8.482051849365234 3.9999999999999996
  endloop
endfacet
facet normal 0.35355330347335046 0.612372476354504 0.7071067895350275
  outer loop
    vertex 10.691340446472166 -8.482051849365234 3.9999999999999996
    vertex 8.300002098083496 -14.376024246215819 10.300000190734862
    vertex 9.725001335144043 -15.198747634887694 10.300000190734862
  endloop
endfacet
facet normal 0.35355330347335046 0.612372476354504 0.7071067895350275
  outer loop
    vertex 10.691340446472166 -8.482051849365234 3.9999999999999996
    vertex 9.725001335144043 -15.198747634887694 10.300000190734862
    vertex 13.499867861953518 -8.66048869115435 2.7502700390204136
  endloop
endfacet
facet normal 0.35355330347335046 0.612372476354504 0.7071067895350275
  outer loop
    vertex 10.691340446472166 -8.482051849365234 3.9999999999999996
    vertex 13.499867861953518 -8.66048869115435 2.7502700390204136
    vertex 11.316205447402739 -7.399754133048881 2.7502700390204136
  endloop
endfacet
facet normal 0.5000122993865765 0.8660182958766547 -0.00010802334885348126
  outer loop
    vertex 3.0890989448484687 -2.6495202466061234 3.9999999999999996
    vertex 11.316205447402739 -7.399754133048881 2.7502700390204136
    vertex 3.0890989448484687 -2.6495202466061234 2.7499999999999996
  endloop
endfacet
facet normal 0.5000122993865765 0.8660182958766547 -0.00010802334885348126
  outer loop
    vertex 11.316205447402739 -7.399754133048881 2.7502700390204136
    vertex 3.0890989448484687 -2.6495202466061234 3.9999999999999996
    vertex 11.31634046096175 -7.399520246606121 3.9999999999999996
  endloop
endfacet
facet normal 0.8660254542255195 -0.4999999126334754 9.975506069972974e-09
  outer loop
    vertex 9.25000286102295 -16.02147102355957 0.0
    vertex 13.499867861953518 -8.66048869115435 2.7502700390204136
    vertex 9.25000286102295 -16.02147102355957 10.300000190734862
  endloop
endfacet
facet normal 0.8660254542255195 -0.4999999126334754 9.975506069972974e-09
  outer loop
    vertex 13.499867861953518 -8.66048869115435 2.7502700390204136
    vertex 9.25000286102295 -16.02147102355957 0.0
    vertex 18.5 0.0 0.0
  endloop
endfacet
facet normal 0.8660254542255195 -0.4999999126334754 9.975506069972974e-09
  outer loop
    vertex 9.25000286102295 -16.02147102355957 10.300000190734862
    vertex 13.499867861953518 -8.66048869115435 2.7502700390204136
    vertex 9.725001335144043 -15.198747634887694 10.300000190734862
  endloop
endfacet
facet normal 0.8660254542255195 -0.4999999126334754 9.975506069972974e-09
  outer loop
    vertex 13.499867861953518 -8.66048869115435 2.7502700390204136
    vertex 18.5 0.0 0.0
    vertex 14.252671021645517 -7.356596407800012 2.7553365216669983
  endloop
endfacet
facet normal 0.8660254542255195 -0.4999999126334754 9.975506069972974e-09
  outer loop
    vertex 14.252671021645517 -7.356596407800012 2.7553365216669983
    vertex 18.5 0.0 0.0
    vertex 18.025001525878903 -0.8227272033691406 10.300000190734862
  endloop
endfacet
facet normal 0.8660254542255195 -0.4999999126334754 9.975506069972974e-09
  outer loop
    vertex 18.025001525878903 -0.8227272033691406 10.300000190734862
    vertex 18.5 0.0 0.0
    vertex 18.5 0.0 10.300000190734862
  endloop
endfacet
facet normal -0.0007398703297709764 -0.0009159971233445839 0.9999993067703424
  outer loop
    vertex 11.316205447402739 -7.399754133048881 2.7502700390204136
    vertex 3.839098928305938 -1.3504835465502605 2.7499999999999996
    vertex 3.0890989448484687 -2.6495202466061234 2.7499999999999996
  endloop
endfacet
facet normal -0.0007398703297709764 -0.0009159971233445839 0.9999993067703424
  outer loop
    vertex 3.839098928305938 -1.3504835465502605 2.7499999999999996
    vertex 11.316205447402739 -7.399754133048881 2.7502700390204136
    vertex 12.06634044441922 -6.10048354655026 2.7499999999999996
  endloop
endfacet
facet normal -0.0007398703297709764 -0.0009159971233445839 0.9999993067703424
  outer loop
    vertex 12.06634044441922 -6.10048354655026 2.7499999999999996
    vertex 11.316205447402739 -7.399754133048881 2.7502700390204136
    vertex 13.499867861953518 -8.66048869115435 2.7502700390204136
  endloop
endfacet
facet normal -0.0007398703297709764 -0.0009159971233445839 0.9999993067703424
  outer loop
    vertex 12.06634044441922 -6.10048354655026 2.7499999999999996
    vertex 13.499867861953518 -8.66048869115435 2.7502700390204136
    vertex 13.310729294719007 -6.815422474605862 2.7530373760175917
  endloop
endfacet
facet normal -0.0007398703297709764 -0.0009159971233445839 0.9999993067703424
  outer loop
    vertex 13.310729294719007 -6.815422474605862 2.7530373760175917
    vertex 13.499867861953518 -8.66048869115435 2.7502700390204136
    vertex 14.252671021645517 -7.356596407800012 2.7553365216669983
  endloop
endfacet
facet normal 0.8660254705729309 0.49999988431891956 2.7129110604362693e-08
  outer loop
    vertex 18.5 0.0 0.0
    vertex 14.248804613751759 7.363291536699947 2.7476035341221823
    vertex 18.5 0.0 10.300000190734862
  endloop
endfacet
facet normal 0.8660254705729309 0.49999988431891956 2.7129110604362693e-08
  outer loop
    vertex 14.248804613751759 7.363291536699947 2.7476035341221823
    vertex 18.5 0.0 0.0
    vertex 9.25000286102295 16.02147102355957 0.0
  endloop
endfacet
facet normal 0.8660254705729309 0.49999988431891956 2.7129110604362693e-08
  outer loop
    vertex 18.5 0.0 10.300000190734862
    vertex 14.248804613751759 7.363291536699947 2.7476035341221823
    vertex 18.025001525878903 0.8227233886718749 10.300000190734862
  endloop
endfacet
facet normal 0.8660254705729309 0.49999988431891956 2.7129110604362693e-08
  outer loop
    vertex 14.248804613751759 7.363291536699947 2.7476035341221823
    vertex 9.25000286102295 16.02147102355957 0.0
    vertex 13.501412700098793 8.65781097493806 2.7471802941028867
  endloop
endfacet
facet normal 0.8660254705729309 0.49999988431891956 2.7129110604362693e-08
  outer loop
    vertex 13.501412700098793 8.65781097493806 2.7471802941028867
    vertex 9.25000286102295 16.02147102355957 0.0
    vertex 9.725001335144043 15.198747634887694 10.300000190734862
  endloop
endfacet
facet normal 0.8660254705729309 0.49999988431891956 2.7129110604362693e-08
  outer loop
    vertex 9.725001335144043 15.198747634887694 10.300000190734862
    vertex 9.25000286102295 16.02147102355957 0.0
    vertex 9.25000286102295 16.02147102355957 10.300000190734862
  endloop
endfacet
facet normal 0.00038620660535396807 -0.0002849484037341712 0.9999998848244261
  outer loop
    vertex 3.83909896595097 1.3504797535873685 2.7499999999999996
    vertex 11.31634046096175 7.399518339257488 2.7499999999999996
    vertex 3.0890989448484687 2.6495183392574906 2.7499999999999996
  endloop
endfacet
facet normal 0.00038620660535396807 -0.0002849484037341712 0.9999998848244261
  outer loop
    vertex 11.31634046096175 7.399518339257488 2.7499999999999996
    vertex 3.83909896595097 1.3504797535873685 2.7499999999999996
    vertex 12.065142199200976 6.102556978594478 2.7476035341221823
  endloop
endfacet
facet normal 0.00038620660535396807 -0.0002849484037341712 0.9999998848244261
  outer loop
    vertex 11.31634046096175 7.399518339257488 2.7499999999999996
    vertex 12.065142199200976 6.102556978594478 2.7476035341221823
    vertex 13.501412700098793 8.65781097493806 2.7471802941028867
  endloop
endfacet
facet normal 0.00038620660535396807 -0.0002849484037341712 0.9999998848244261
  outer loop
    vertex 13.501412700098793 8.65781097493806 2.7471802941028867
    vertex 12.065142199200976 6.102556978594478 2.7476035341221823
    vertex 14.248804613751759 7.363291536699947 2.7476035341221823
  endloop
endfacet
endsolid Six_lobe_antenna_holder
